<svg width="237" height="64" viewBox="0 0 237 64" fill="none" xmlns="http://www.w3.org/2000/svg">
<path fill-rule="evenodd" clip-rule="evenodd" d="M0 30.6936C0 12.4272 12.65 0.164044 31.5326 0.000932601C31.5568 0.000723769 31.8681 0.00053481 32.1467 0.000365776C32.3683 0.000231306 32.5693 0.000109436 32.5885 0V14.1743H48.1186L48.1187 18.1722C48.1187 30.1114 42.7145 37.6223 33.6981 42.7298C36.3933 47.2673 41.2008 49.9745 47.2687 49.9992C47.2967 49.9993 51.2345 49.9994 51.2625 49.9994V64C51.2431 63.9999 50.4419 63.9998 49.558 63.9996C48.4654 63.9995 47.2464 63.9993 47.2224 63.9991C33.5576 63.881 23.1568 57.4262 18.4522 46.945C17.8372 46.9771 17.2151 46.9959 16.5861 47.0014C16.5649 47.0016 16.3236 47.0017 16.0769 47.0019L15.7196 47.0021C15.6802 47.0021 15.6451 47.0022 15.6161 47.0022V63.6156H0L0 30.6936ZM15.6161 33.0017C15.8565 33.0017 16.5166 33.0016 16.5398 33.0015C26.0786 32.9626 32.5026 28.1587 32.5026 18.1722L32.5026 14.1746C32.2621 14.1746 31.6021 14.1746 31.5789 14.1747C22.0401 14.2136 15.6161 20.7071 15.6161 30.6936V33.0017Z" fill="url(#paint0_radial_51_575)"/>
<path d="M68.1318 33.9129C68.1318 25.9992 73.6122 20.1648 81.7928 20.0941C81.8116 20.094 82.2314 20.0938 82.2502 20.0937V26.6809C82.2381 26.6809 81.8249 26.6809 81.8128 26.681C77.6803 26.6979 74.8972 29.5864 74.8972 33.9129V51.6428H68.1318V33.9129Z" fill="#121212"/>
<path d="M113.898 41.0982C111.985 47.6769 105.919 52.5293 98.7342 52.5293C89.9625 52.5293 82.8239 45.3907 82.8239 36.619C82.8239 27.894 89.9625 20.802 98.7342 20.802C106.806 20.802 115.624 27.5674 114.411 38.8586H90.0558C90.9423 43.2911 94.535 46.4638 98.7342 46.4638C102.14 46.4638 105.173 44.3642 106.619 41.0982H113.898ZM90.3358 33.2597L106.993 33.213C105.78 29.3871 102.513 26.8676 98.7342 26.8676C94.9083 26.8676 91.5955 29.4337 90.3358 33.2597Z" fill="#121212"/>
<path d="M122.682 41.0515C122.682 44.1776 124.455 46.5105 128.327 46.5105C131.267 46.5105 133.04 45.0641 133.04 43.1511C133.04 36.4791 116.849 41.2848 116.849 29.4804C116.849 24.3947 121.562 20.5688 127.861 20.5688C134.299 20.5688 139.105 24.9079 139.105 30.0869H132.107C132.107 28.3606 130.287 26.6343 127.861 26.6343C125.434 26.6343 123.615 27.8474 123.615 29.4804C123.615 35.3126 140.038 31.72 140.038 42.4046C140.038 48.2368 134.813 52.576 127.861 52.576C121.049 52.576 115.916 47.6303 115.916 41.0515H122.682Z" fill="#121212"/>
<path d="M142.821 51.6428V21.3153H149.586V51.6428H142.821ZM142.868 14.7832C142.868 12.9169 144.314 11.4238 146.227 11.4238C148.093 11.4238 149.586 12.9169 149.586 14.7832C149.586 16.6495 148.093 18.1425 146.227 18.1425C144.314 18.1425 142.868 16.6495 142.868 14.7832Z" fill="#121212"/>
<path d="M160.535 45.5773H178.218V51.6428H152.369V45.5773L169.12 27.3808H153.303V21.3153H177.751V27.3808L160.535 45.5773Z" fill="#121212"/>
<path d="M210.68 41.0982C208.767 47.6769 202.702 52.5293 195.516 52.5293C186.745 52.5293 179.606 45.3907 179.606 36.619C179.606 27.894 186.745 20.802 195.516 20.802C203.588 20.802 212.406 27.5674 211.193 38.8586H186.838C187.724 43.2911 191.317 46.4638 195.516 46.4638C198.922 46.4638 201.955 44.3642 203.401 41.0982H210.68ZM187.118 33.2597L203.775 33.213C202.562 29.3871 199.296 26.8676 195.516 26.8676C191.69 26.8676 188.378 29.4337 187.118 33.2597Z" fill="#121212"/>
<path d="M219.464 41.0515C219.464 44.1776 221.237 46.5105 225.109 46.5105C228.049 46.5105 229.822 45.0641 229.822 43.1511C229.822 36.4791 213.632 41.2848 213.632 29.4804C213.632 24.3947 218.344 20.5688 224.643 20.5688C231.082 20.5688 235.887 24.9079 235.887 30.0869H228.889C228.889 28.3606 227.069 26.6343 224.643 26.6343C222.217 26.6343 220.397 27.8474 220.397 29.4804C220.397 35.3126 236.82 31.72 236.82 42.4046C236.82 48.2368 231.595 52.576 224.643 52.576C217.831 52.576 212.698 47.6303 212.698 41.0515H219.464Z" fill="#121212"/>
<path d="M68.1318 33.9129C68.1318 25.9992 73.6122 20.1648 81.7928 20.0941C81.8116 20.094 82.2314 20.0938 82.2502 20.0937V26.6809C82.2381 26.6809 81.8249 26.6809 81.8128 26.681C77.6803 26.6979 74.8972 29.5864 74.8972 33.9129V51.6428H68.1318V33.9129Z" fill="#121212"/>
<defs>
<radialGradient id="paint0_radial_51_575" cx="0" cy="0" r="1" gradientUnits="userSpaceOnUse" gradientTransform="translate(25.6313 40.5324) rotate(90) scale(53.5773 53.5773)">
<stop stop-color="#FE1AA7"/>
<stop offset="1" stop-color="#F71A40"/>
</radialGradient>
</defs>
</svg>
